<mxfile host="app.diagrams.net" modified="2022-11-08T10:05:57.305Z" agent="5.0 (Windows NT 10.0; Win64; x64) AppleWebKit/537.36 (KHTML, like Gecko) Chrome/107.0.0.0 Safari/537.36" etag="mWrXbWSU6ca6brfm_N4l" version="20.2.8" type="github">
  <diagram id="Zx4MFaG2C6o8nhM3KKF1" name="Page-1">
    <mxGraphModel dx="1278" dy="539" grid="1" gridSize="10" guides="1" tooltips="1" connect="1" arrows="1" fold="1" page="1" pageScale="1" pageWidth="850" pageHeight="1100" math="0" shadow="0">
      <root>
        <mxCell id="0" />
        <mxCell id="1" parent="0" />
        <mxCell id="Pvlrlx3k5bJVYEnzvyyn-18" value="" style="edgeStyle=orthogonalEdgeStyle;rounded=0;orthogonalLoop=1;jettySize=auto;html=1;fontSize=14;" edge="1" parent="1" source="Pvlrlx3k5bJVYEnzvyyn-1" target="Pvlrlx3k5bJVYEnzvyyn-4">
          <mxGeometry relative="1" as="geometry" />
        </mxCell>
        <mxCell id="Pvlrlx3k5bJVYEnzvyyn-1" value="&lt;font style=&quot;font-size: 18px;&quot;&gt;Encoder&lt;/font&gt;" style="rounded=0;whiteSpace=wrap;html=1;" vertex="1" parent="1">
          <mxGeometry x="290" y="110" width="110" height="30" as="geometry" />
        </mxCell>
        <mxCell id="Pvlrlx3k5bJVYEnzvyyn-4" value="&amp;nbsp;Convolutional blocks" style="rounded=0;whiteSpace=wrap;html=1;fontSize=18;" vertex="1" parent="1">
          <mxGeometry x="280" y="190" width="130" height="70" as="geometry" />
        </mxCell>
        <mxCell id="Pvlrlx3k5bJVYEnzvyyn-6" value="" style="strokeWidth=2;html=1;shape=mxgraph.flowchart.annotation_2;align=left;labelPosition=right;pointerEvents=1;fontSize=18;direction=south;" vertex="1" parent="1">
          <mxGeometry x="220" y="260" width="250" height="50" as="geometry" />
        </mxCell>
        <mxCell id="Pvlrlx3k5bJVYEnzvyyn-13" value="" style="strokeWidth=2;html=1;shape=mxgraph.flowchart.annotation_2;align=left;labelPosition=right;pointerEvents=1;fontSize=18;direction=south;" vertex="1" parent="1">
          <mxGeometry x="295" y="260" width="100" height="50" as="geometry" />
        </mxCell>
        <mxCell id="Pvlrlx3k5bJVYEnzvyyn-14" value="&lt;font style=&quot;font-size: 14px;&quot;&gt;Convolutional layer (3*3 filter)&lt;/font&gt;" style="rounded=0;whiteSpace=wrap;html=1;fontSize=18;" vertex="1" parent="1">
          <mxGeometry x="140" y="310" width="110" height="40" as="geometry" />
        </mxCell>
        <mxCell id="Pvlrlx3k5bJVYEnzvyyn-15" value="&lt;font style=&quot;font-size: 14px;&quot;&gt;Leaky ReLU&lt;/font&gt;" style="rounded=0;whiteSpace=wrap;html=1;fontSize=18;" vertex="1" parent="1">
          <mxGeometry x="260" y="310" width="80" height="40" as="geometry" />
        </mxCell>
        <mxCell id="Pvlrlx3k5bJVYEnzvyyn-16" value="&lt;font style=&quot;font-size: 14px;&quot;&gt;Batch normalization&lt;/font&gt;" style="rounded=0;whiteSpace=wrap;html=1;fontSize=18;" vertex="1" parent="1">
          <mxGeometry x="350" y="310" width="90" height="40" as="geometry" />
        </mxCell>
        <mxCell id="Pvlrlx3k5bJVYEnzvyyn-17" value="&lt;font style=&quot;font-size: 14px;&quot;&gt;MaxPooling layer (2*2)&lt;/font&gt;" style="rounded=0;whiteSpace=wrap;html=1;fontSize=18;" vertex="1" parent="1">
          <mxGeometry x="450" y="310" width="90" height="40" as="geometry" />
        </mxCell>
        <mxCell id="Pvlrlx3k5bJVYEnzvyyn-21" value="" style="strokeWidth=2;html=1;shape=mxgraph.flowchart.annotation_2;align=left;labelPosition=right;pointerEvents=1;fontSize=14;direction=north;" vertex="1" parent="1">
          <mxGeometry x="205" y="350" width="280" height="50" as="geometry" />
        </mxCell>
        <mxCell id="Pvlrlx3k5bJVYEnzvyyn-24" value="" style="edgeStyle=orthogonalEdgeStyle;rounded=0;orthogonalLoop=1;jettySize=auto;html=1;fontSize=14;" edge="1" parent="1" source="Pvlrlx3k5bJVYEnzvyyn-22" target="Pvlrlx3k5bJVYEnzvyyn-23">
          <mxGeometry relative="1" as="geometry" />
        </mxCell>
        <mxCell id="Pvlrlx3k5bJVYEnzvyyn-22" value="Flatten layer (8192)" style="rounded=0;whiteSpace=wrap;html=1;fontSize=14;" vertex="1" parent="1">
          <mxGeometry x="285" y="400" width="120" height="40" as="geometry" />
        </mxCell>
        <mxCell id="Pvlrlx3k5bJVYEnzvyyn-26" value="" style="edgeStyle=orthogonalEdgeStyle;rounded=0;orthogonalLoop=1;jettySize=auto;html=1;fontSize=14;" edge="1" parent="1" source="Pvlrlx3k5bJVYEnzvyyn-23" target="Pvlrlx3k5bJVYEnzvyyn-25">
          <mxGeometry relative="1" as="geometry" />
        </mxCell>
        <mxCell id="Pvlrlx3k5bJVYEnzvyyn-23" value="Dense layer (128)" style="rounded=0;whiteSpace=wrap;html=1;fontSize=14;" vertex="1" parent="1">
          <mxGeometry x="282.5" y="460" width="125" height="40" as="geometry" />
        </mxCell>
        <mxCell id="Pvlrlx3k5bJVYEnzvyyn-25" value="Dense layer (8192)" style="rounded=0;whiteSpace=wrap;html=1;fontSize=14;" vertex="1" parent="1">
          <mxGeometry x="282.5" y="520" width="125" height="40" as="geometry" />
        </mxCell>
      </root>
    </mxGraphModel>
  </diagram>
</mxfile>
